<svg width="52" height="46" viewBox="0 0 52 46" fill="none" xmlns="http://www.w3.org/2000/svg">
<path fill-rule="evenodd" clip-rule="evenodd" d="M7.09921 23.9389C7.11246 23.9838 7.15315 24.0147 7.1999 24.0154C10.7401 24.0729 14.5819 24.0734 18.1808 24.0734C18.2399 24.0734 18.2877 24.1211 18.2879 24.1802C18.3068 31.3772 18.2686 38.9908 18.2871 45.7123C18.2873 45.7935 18.2006 45.8449 18.1292 45.8062C12.0003 42.4783 6.87942 37.5552 3.91157 31.2149C3.8784 31.144 3.93018 31.0627 4.00841 31.0627C5.93038 31.062 7.86911 31.0503 9.77178 31.0624C9.8076 31.0626 9.84093 31.0808 9.86069 31.1107C10.6745 32.3418 11.5187 33.4392 12.4378 34.528C12.4834 34.5821 12.6027 34.7093 12.7055 34.8105C12.7662 34.8703 12.8551 34.83 12.8568 34.7447C12.893 32.9464 12.9114 31.1144 12.9121 29.2992C12.9121 29.24 12.8641 29.192 12.8049 29.192C9.63249 29.1918 6.35067 29.1839 3.17898 29.1838C3.13404 29.1838 3.0939 29.1557 3.07845 29.1135C1.17475 23.9136 0.325582 18.5485 0.530981 13.0182C0.532224 12.9847 0.549136 12.9537 0.576559 12.9345C5.81673 9.26519 11.7808 7.318 18.174 6.92603C18.2355 6.92225 18.2876 6.97125 18.2876 7.03293C18.2876 8.77722 18.2876 10.4858 18.2876 12.1938C18.2876 12.2505 18.2435 12.2974 18.1868 12.301C13.9408 12.5703 9.66229 13.7564 6.02372 15.9014C5.99166 15.9203 5.97179 15.9545 5.97125 15.9917C5.93323 18.6404 6.34817 21.3976 7.09921 23.9389Z" fill="#44087D"/>
<path fill-rule="evenodd" clip-rule="evenodd" d="M20.5811 7.04665C20.5814 6.98396 20.6354 6.93491 20.6978 6.94054C26.974 7.5062 32.7223 9.53671 37.943 13.0321C37.9708 13.0507 37.9883 13.0813 37.9903 13.1147C38.1671 16.1214 37.9785 19.1214 37.4151 22.0877C37.4056 22.1379 37.3617 22.1743 37.3106 22.1747C35.5098 22.1874 33.8444 22.1746 32.1501 22.1741C32.0909 22.174 32.0429 22.1264 32.0429 22.0671C32.0446 20.2271 32.0885 17.9481 32.0443 16.0678C32.0434 16.0305 32.0231 15.9965 31.9907 15.9779C29.9554 14.8029 28.0204 13.942 25.777 13.3185C25.7084 13.2994 25.6406 13.3518 25.6416 13.4231C25.7363 20.618 25.6221 27.7179 25.7168 34.9127C25.7177 34.9853 25.7887 35.0346 25.8538 35.0026C25.9562 34.9521 26.0665 34.8828 26.1198 34.8185C27.4153 33.2578 28.4701 31.5437 29.2844 29.676C29.3129 29.6108 29.365 29.4607 29.4012 29.3368C29.4203 29.2716 29.3706 29.2096 29.3028 29.2096C28.7958 29.2096 28.3257 29.2096 27.8023 29.2096C27.743 29.2096 27.695 29.1615 27.695 29.1023C27.695 27.4016 27.695 25.8794 27.695 24.1786C27.695 24.1194 27.743 24.0713 27.8022 24.0713C30.8058 24.0713 33.8281 24.0713 36.8691 24.0713C36.9379 24.0713 36.9888 24.1356 36.9734 24.2027C34.7719 33.7802 29.1894 41.0195 20.6979 45.8016C20.6272 45.8414 20.5394 45.7913 20.5381 45.7102C20.3454 32.8535 20.5153 19.969 20.5811 7.04665Z" fill="#44087D"/>
<path d="M43.1199 1.6525C40.8363 8.06058 39.8836 8.69942 33.0883 8.37906C39.4964 10.6627 40.1353 11.6154 39.8149 18.4106C42.0985 12.0025 43.0512 11.3637 49.8465 11.6841C43.4384 9.40048 42.7996 8.44777 43.1199 1.6525Z" fill="#44087D"/>
</svg>
